<svg width="18" height="18" viewBox="0 0 18 18" fill="none" xmlns="http://www.w3.org/2000/svg">
<path d="M17.1247 5.27681C17.1247 5.11212 17.105 4.95117 17.0201 4.80657C16.8424 4.50397 16.5768 4.35242 16.2242 4.35254C14.9821 4.35306 13.74 4.35216 12.4979 4.35319C12.2064 4.35345 11.9303 4.42452 11.6639 4.54093C11.5503 4.59063 11.4434 4.65334 11.3211 4.71102V4.59423C11.3211 3.65671 11.3202 2.71918 11.3218 1.78165C11.3223 1.49463 11.2225 1.25655 10.9998 1.071C10.826 0.926143 10.6232 0.876054 10.4019 0.876311C9.22215 0.877084 8.04227 0.879273 6.86251 0.875024C6.54742 0.873865 6.24368 0.914941 5.94987 1.03121C5.65193 1.14916 5.37837 1.30394 5.15008 1.53198C3.94518 2.73489 2.73988 3.93767 1.53536 5.14109C1.41529 5.2611 1.30875 5.39231 1.2244 5.54052C1.01159 5.91483 0.874614 6.30937 0.875001 6.74665C0.876935 8.72253 0.876162 10.6985 0.875388 12.6744C0.875388 12.8231 0.890091 12.9684 0.945551 13.1077C0.974571 13.2326 1.05802 13.3234 1.14456 13.4088C1.31365 13.5756 1.52376 13.6466 1.75862 13.647C2.50192 13.6483 3.24534 13.6472 3.98864 13.6473C4.84157 13.6475 5.69449 13.6473 6.54742 13.6471C6.5896 13.6471 6.63409 13.6556 6.67188 13.6265C6.68594 13.6383 6.67975 13.6543 6.67975 13.6686C6.67949 14.3246 6.67408 14.9808 6.68078 15.6369C6.68401 15.9532 6.63422 16.2749 6.74759 16.5842C6.74605 16.5904 6.74282 16.5963 6.74592 16.6029C6.79764 16.7099 6.86458 16.8066 6.95047 16.8886C7.1353 17.0651 7.36127 17.1246 7.61174 17.1245C10.4745 17.1232 13.3373 17.1228 16.2002 17.125C16.5029 17.1253 16.7556 17.0305 16.9438 16.7887C17.0001 16.7163 17.0544 16.6407 17.0681 16.5456C17.1117 16.4231 17.1245 16.2963 17.1245 16.1673C17.1243 13.8266 17.1243 11.4861 17.1245 9.14538C17.1245 7.85595 17.1246 6.56664 17.125 5.2772L17.1247 5.27681ZM11.2426 6.38843C11.2698 6.36126 11.2982 6.33486 11.3153 6.29958C11.332 6.34091 11.3202 6.38366 11.3204 6.42564C11.3213 7.25578 11.3204 8.08579 11.3223 8.9158C11.3224 8.974 11.308 8.98907 11.249 8.98894C10.4068 8.98688 9.56458 8.98752 8.72236 8.98739C8.70521 8.98739 8.68806 8.9861 8.6709 8.98533C8.66561 8.94335 8.70095 8.92623 8.72391 8.90331C9.56304 8.06467 10.4027 7.22655 11.2423 6.3883L11.2426 6.38843ZM2.9211 5.42733C3.76022 4.5887 4.59986 3.75057 5.43951 2.91232C5.46672 2.88515 5.4951 2.85876 5.51225 2.82348C5.52889 2.86713 5.51715 2.91207 5.51728 2.9561C5.51818 3.78392 5.51728 4.61187 5.51921 5.4397C5.51934 5.49815 5.50438 5.51283 5.44583 5.5127C4.6058 5.51064 3.76577 5.51142 2.92587 5.51129C2.90652 5.51129 2.8873 5.51 2.86796 5.50923C2.86267 5.46725 2.89801 5.45013 2.92097 5.42721L2.9211 5.42733ZM7.36707 8.58745C6.98182 8.97117 6.773 9.44025 6.69084 9.96986C6.66827 10.1159 6.67859 10.2652 6.67859 10.4133C6.67885 11.0741 6.67782 11.735 6.68014 12.3958C6.6804 12.4536 6.66453 12.4649 6.60933 12.4649C5.10713 12.4634 3.60493 12.4632 2.10286 12.4654C2.04134 12.4654 2.03528 12.4453 2.03528 12.3932C2.03644 10.5246 2.03605 8.65583 2.0367 6.78721C2.0367 6.74974 2.02548 6.71098 2.04328 6.67441C2.07152 6.70634 2.10777 6.71626 2.14826 6.70905C2.21469 6.6972 2.28047 6.703 2.34702 6.70931C2.45613 6.71961 2.56486 6.70081 2.67462 6.703C2.90368 6.7075 3.13313 6.69913 3.36233 6.70403C3.49711 6.70686 3.63292 6.69179 3.76654 6.70519C3.9386 6.72231 4.10898 6.69707 4.2809 6.70377C4.45773 6.71072 4.63611 6.71523 4.81435 6.70879C5.03684 6.70081 5.25958 6.69398 5.4831 6.7057C5.6785 6.71587 5.87893 6.72785 6.07008 6.66424C6.31681 6.58209 6.49222 6.4174 6.6052 6.18498C6.61539 6.16399 6.62442 6.14172 6.62223 6.11712C6.6635 6.00111 6.67846 5.88084 6.67846 5.75839C6.67833 4.535 6.67795 3.31149 6.67795 2.08811C6.67795 2.07188 6.67046 2.05373 6.68555 2.03969C6.75662 2.07781 6.83543 2.07626 6.91023 2.07021C7.0218 2.06119 7.13259 2.07433 7.2439 2.06776C7.389 2.05913 7.53487 2.06866 7.68023 2.06467C7.7473 2.06287 7.81256 2.07909 7.87924 2.07587C8.1065 2.06467 8.33376 2.07987 8.56088 2.07459C8.68522 2.07175 8.80929 2.0572 8.93389 2.06454C9.05577 2.07162 9.17817 2.07832 9.29967 2.07381C9.48385 2.06686 9.66777 2.06441 9.85182 2.06853C9.93114 2.07034 10.0102 2.07433 10.0893 2.06403C10.1133 2.06094 10.136 2.0581 10.1535 2.03982C10.1678 2.05167 10.1614 2.06763 10.1612 2.0818C10.1611 3.29617 10.1603 4.51041 10.1612 5.72478C10.1612 5.7786 10.1455 5.81581 10.1075 5.8538C9.19313 6.76455 8.28087 7.67722 7.36655 8.58797L7.36707 8.58745ZM15.9648 5.55751C15.9647 8.98984 15.9642 12.4222 15.9638 15.8546C15.9638 15.9114 15.9357 15.9397 15.8796 15.9397C13.2259 15.9397 10.572 15.9395 7.91832 15.9413C7.85435 15.9413 7.8381 15.9276 7.8381 15.8622C7.84003 14.0002 7.83939 12.1381 7.84003 10.2761C7.84003 10.2343 7.82739 10.1913 7.84648 10.1503C7.86931 10.1711 7.89497 10.1904 7.92683 10.1837C8.0402 10.1597 8.15357 10.187 8.2672 10.1831C8.42752 10.1777 8.58823 10.1782 8.7488 10.1764C8.99928 10.1737 9.24975 10.1778 9.50023 10.1782C9.66686 10.1785 9.83441 10.1791 10.0012 10.1812C10.2901 10.1846 10.5798 10.1714 10.8685 10.1781C11.0977 10.1833 11.3268 10.1759 11.556 10.1824C11.8132 10.1899 12.0447 10.112 12.226 9.9226C12.3158 9.82886 12.4013 9.72817 12.4257 9.59284C12.468 9.47476 12.4823 9.35218 12.4823 9.22766C12.4821 8.00415 12.4815 6.78077 12.4814 5.55726C12.4814 5.54309 12.475 5.52713 12.4893 5.51541C12.5129 5.54026 12.5416 5.54696 12.5759 5.54811C12.696 5.55198 12.8157 5.5503 12.9357 5.54206C13.0147 5.53665 13.0935 5.55803 13.1731 5.55159C13.4062 5.53266 13.6401 5.56176 13.8723 5.54605C14.0547 5.53382 14.2358 5.55288 14.4179 5.54451C14.5422 5.53884 14.6696 5.53975 14.7956 5.54889C14.9322 5.5588 15.0696 5.5364 15.2061 5.54554C15.3604 5.55584 15.5138 5.52803 15.6683 5.54374C15.7509 5.55211 15.8349 5.53665 15.9185 5.53627C15.9349 5.53627 15.9452 5.52391 15.9573 5.51528C15.9714 5.52713 15.9652 5.54322 15.9652 5.55739L15.9648 5.55751Z" fill="white"/>
</svg>
