<svg width="20" height="20" viewBox="0 0 20 20" fill="none" xmlns="http://www.w3.org/2000/svg">
<path d="M17.1176 5.127C17.1168 5.10617 17.1115 5.08491 17.1045 5.06508C17.0533 4.91984 16.9455 4.85278 16.7616 4.85278C15.7591 4.85249 14.7566 4.85192 13.754 4.85435C13.69 4.85449 13.6632 4.83337 13.6399 4.77759C13.4263 4.26567 13.1992 3.75903 12.9967 3.24282C12.774 2.67483 12.1311 2.27463 11.5467 2.28133C10.506 2.29346 9.46491 2.27477 8.42416 2.28847C7.79015 2.29674 7.3136 2.59864 7.0456 3.16977C6.79689 3.69996 6.58287 4.24626 6.35632 4.78658C6.33416 4.83951 6.30739 4.85392 6.2514 4.85392C5.25368 4.85206 4.25596 4.85249 3.25824 4.85292C3.21996 4.85292 3.18138 4.85449 3.14367 4.86005C2.9973 4.8816 2.89626 4.98347 2.88359 5.12971C2.86661 5.32646 2.88086 5.52407 2.87625 5.72124C2.87424 5.80956 2.88129 5.89602 2.91411 5.97906C2.91742 6.0143 2.93728 6.04027 2.96175 6.06395C3.03645 6.13629 3.12842 6.16283 3.22989 6.16311C3.5094 6.16397 3.78905 6.16368 4.06857 6.16325C4.10196 6.16325 4.13592 6.16397 4.16413 6.14114C4.18457 6.20349 4.1709 6.26741 4.1709 6.33033C4.17191 9.38002 4.17306 12.4296 4.17061 15.4793C4.17032 15.8709 4.20012 16.2549 4.35311 16.6211C4.36952 16.712 4.42018 16.7876 4.46495 16.8655C4.58441 17.0738 4.73582 17.2566 4.9225 17.409C5.19352 17.6301 5.50916 17.719 5.85689 17.7187C8.22093 17.7176 10.585 17.7181 12.949 17.7181C13.3591 17.7181 13.769 17.7198 14.179 17.7176C14.5006 17.7159 14.794 17.6253 15.0474 17.4248C15.2481 17.2659 15.4047 17.0688 15.5305 16.8477C15.5844 16.7531 15.6403 16.6588 15.6641 16.5506C15.7769 16.2476 15.8288 15.934 15.8286 15.6115C15.8282 12.4702 15.8276 9.32894 15.8275 6.18765C15.8275 6.17196 15.8204 6.15412 15.8362 6.14114C15.8669 6.16568 15.9036 6.16311 15.9393 6.16311C16.2125 6.1634 16.4856 6.16311 16.7588 6.1634C16.837 6.1634 16.912 6.15056 16.9798 6.11061C17.0464 6.07137 17.0923 6.01616 17.1031 5.93711C17.1081 5.90701 17.1165 5.87705 17.1176 5.8468C17.1277 5.60696 17.1273 5.36698 17.1174 5.12714L17.1176 5.127ZM7.76237 4.79499C7.82771 4.69455 7.86197 4.57998 7.90831 4.47141C8.00907 4.23542 8.10996 3.99958 8.20711 3.76216C8.24842 3.66144 8.35176 3.59823 8.45899 3.60779C8.62177 3.62248 8.78456 3.61421 8.94705 3.60651C9.01254 3.60337 9.07587 3.61492 9.14049 3.61521C9.30558 3.61621 9.47067 3.61378 9.63547 3.60265C9.75997 3.59424 9.8836 3.61364 10.0084 3.61079C10.1995 3.60636 10.3911 3.62092 10.5822 3.60394C10.6405 3.5988 10.6967 3.61421 10.7541 3.61464C10.9504 3.61621 11.1467 3.61735 11.3428 3.60308C11.439 3.59609 11.5345 3.60765 11.6293 3.6192C11.7122 3.62933 11.7589 3.69339 11.8077 3.75175C11.9319 4.04823 12.0561 4.34485 12.1803 4.64133C12.2085 4.70868 12.2364 4.77616 12.2666 4.84893H7.74251C7.73949 4.82867 7.74639 4.8104 7.76251 4.79499H7.76237ZM8.05786 14.7462C8.05786 14.9021 8.02029 15.0328 7.86082 15.0993C7.81116 15.12 7.75877 15.1237 7.70595 15.1237C7.50934 15.1239 7.31273 15.1243 7.11613 15.1236C6.88555 15.1227 6.76422 15.0024 6.76307 14.7697C6.76134 14.4442 6.76249 14.1186 6.76235 13.793C6.76206 11.7894 6.76177 9.78579 6.76192 7.78234C6.76192 7.73583 6.76019 7.68846 6.7812 7.64451C6.85878 7.49998 6.98587 7.45818 7.14203 7.46703C7.30007 7.47601 7.4581 7.46189 7.61599 7.45547C7.68853 7.45261 7.75964 7.46374 7.83016 7.47601C7.91206 7.49014 7.97006 7.54378 8.02317 7.60314C8.06361 7.65664 8.05757 7.72027 8.05757 7.78034C8.05815 10.1024 8.05743 12.4244 8.05786 14.7465V14.7462ZM10.6358 14.8877C10.6074 15.0246 10.4898 15.1183 10.3393 15.1214C10.114 15.126 9.8885 15.1271 9.66325 15.1212C9.48377 15.1164 9.36877 15.0042 9.3584 14.8262C9.34977 14.6794 9.35279 14.5318 9.35279 14.3845C9.35265 12.2193 9.35279 10.0542 9.35337 7.88892C9.35337 7.80716 9.34012 7.72384 9.3715 7.64409C9.46621 7.46417 9.63432 7.45361 9.80818 7.46146C9.86547 7.46403 9.92203 7.4636 9.97932 7.46103C10.1244 7.45461 10.2696 7.46546 10.4144 7.4753C10.5003 7.48115 10.5562 7.54621 10.6138 7.60285C10.6542 7.65636 10.6482 7.71999 10.6482 7.7802C10.6489 10.0833 10.6486 12.3862 10.6479 14.6893C10.6479 14.7556 10.6495 14.8235 10.6362 14.8879L10.6358 14.8877ZM13.2382 14.7319C13.2382 14.7866 13.2392 14.8418 13.2246 14.8946C13.1872 15.0307 13.0781 15.1187 12.9297 15.1216C12.7045 15.126 12.4789 15.1271 12.2537 15.1213C12.0744 15.1166 11.964 15.0042 11.9474 14.8264C11.945 14.8004 11.9435 14.7743 11.9435 14.7482C11.9429 12.4237 11.9425 10.0994 11.9428 7.77492C11.9428 7.73098 11.9401 7.68546 11.9619 7.64409C11.9939 7.61783 12.0021 7.57446 12.0339 7.54792C12.0967 7.49556 12.1675 7.46788 12.2505 7.46688C12.449 7.4646 12.6478 7.47373 12.8461 7.46546C12.9887 7.45961 13.1106 7.49057 13.2042 7.60257C13.2446 7.65607 13.2386 7.7197 13.2386 7.77991C13.2393 10.0973 13.2387 12.4144 13.2386 14.7318L13.2382 14.7319Z" fill="white"/>
</svg>
